PathFileType	4	(X/Y/Z)	Patient4_TMGait_0pt8_01_left_24.trc.trc
DataRate	CameraRate	NumFrames	NumMarkers	Units	OrigDataRate	OrigDataStartFrame	OrigNumFrames
86.419753086420	86.419753086420	5	33	mm	86.419753086420	1	       141
Frame#	Time	Sacral			L.Shoulder			Chest			R.Shoulder			Neck			R.ASIS			L.ASIS			R.Thigh.Superior			R.Thigh.Lateral			R.Thigh.Inferior			R.Patella			L.Thigh.Superior			L.Thigh.Lateral			L.Thigh.Inferior			L.Patella			L.Shank.Superior			L.Shank.Lateral			L.Shank.Inferior			R.Shank.Superior			R.Shank.Lateral			R.Shank.Inferior			R.Heel			R.Midfoot.Superior			R.Midfoot.Lateral			R.Toe			L.Heel			L.Midfoot.Lateral			L.Midfoot.Superior			L.Toe			L.Elbow			L.Wrist			R.Elbow			R.Wrist			
		X1	Y1	Z1	X2	Y2	Z2	X3	Y3	Z3	X4	Y4	Z4	X5	Y5	Z5	X6	Y6	Z6	X7	Y7	Z7	X8	Y8	Z8	X9	Y9	Z9	X10	Y10	Z10	X11	Y11	Z11	X12	Y12	Z12	X13	Y13	Z13	X14	Y14	Z14	X15	Y15	Z15	X16	Y16	Z16	X17	Y17	Z17	X18	Y18	Z18	X19	Y19	Z19	X20	Y20	Z20	X21	Y21	Z21	X22	Y22	Z22	X23	Y23	Z23	X24	Y24	Z24	X25	Y25	Z25	X26	Y26	Z26	X27	Y27	Z27	X28	Y28	Z28	X29	Y29	Z29	X30	Y30	Z30	X31	Y31	Z31	X32	Y32	Z32	X33	Y33	Z33	

1	26.190000000000	898.364449873379	1007.434448052358	535.751514055067	1055.596909645365	1432.950173556095	337.954163116971	1168.452275117850	1371.265646894117	496.360147955961	1091.580716320878	1444.940284134561	673.503639875180	1042.627766509370	1498.594280997759	493.275107722551	1129.680393649037	951.966184898466	646.622696155125	1111.047187543561	967.714915680634	371.186429242714	1164.539321163669	745.580343984213	620.459781607858	1076.145673868695	636.813168479835	673.928794691656	1154.252952519142	583.784291884077	596.798932414197	1150.298050412803	496.318594833603	600.066158900747	1194.862240961794	785.035408227348	398.089945706497	1149.825027558576	659.496419631153	316.908517850179	1258.702477261517	598.383008992096	371.818582174806	1274.144453661196	509.535322829986	362.666970843667	1209.678694994402	440.159438338841	354.900731954075	1067.938810806579	393.524445743621	309.452023535944	1064.064104590644	261.049658255378	358.791608422189	1123.074323902637	408.037803357080	602.088406863544	1049.308148937226	302.718384577950	656.192371699992	1095.284476931180	209.719742687316	592.123861669400	961.604603287623	46.447050576282	550.091408059954	1133.116597455490	98.351540837572	594.688444399634	1042.338556867412	38.378942440087	627.330627712336	1250.967892872797	40.725132820791	624.756807288705	878.232059493944	187.184685086662	401.837324520794	933.765132614940	147.619614510956	316.723740568029	1040.043914101636	156.822566825602	334.783631599076	1118.597913305286	48.438170871110	296.680360658365	1084.028618859999	1075.322157380705	240.413563245303	1239.043385620850	864.409567707771	243.901567584161	1103.889823002352	1095.170238406776	799.353185177459	1281.364539746370	904.655591978349	810.289297245752	
2	26.201571428571	897.043584607818	1008.043759439024	537.143292111788	1053.779966004267	1432.891664681869	338.815136520428	1167.633514966119	1371.174679221806	496.413172679839	1092.238099469873	1445.210557158827	674.039284702083	1042.212748079135	1498.791018091064	493.985169651388	1128.138884820266	951.619888897645	647.001088041464	1107.528723849234	967.362849691629	372.034456549221	1160.789920893923	744.864718863232	619.942127179987	1071.721198549755	636.743994913666	674.236902072865	1148.648123562183	582.962288965728	596.780514686600	1143.572131215103	495.663994752270	600.081065056308	1193.768849025383	787.868539939480	398.414899883173	1150.877976154386	661.617619792839	317.068137286213	1260.027773473862	602.067819128578	371.862372617734	1277.320566777666	514.576649379692	362.461995091880	1216.726844316527	443.528790531751	354.298697197712	1078.936686482558	388.380364348920	309.085327052992	1084.047541838058	256.313975329724	357.600791956091	1115.838142443944	407.680813049409	602.291559539211	1041.301225045870	302.769289051731	656.554244573687	1086.447604450337	209.523817014005	592.318928667913	951.789952960655	46.557236873806	550.230562228995	1123.422030276455	98.338136090988	594.782364392130	1032.582827141815	38.361053487210	627.440877134716	1241.140650867857	40.610595617489	624.775760832336	905.074828188547	170.480156897371	401.065176155509	962.037322508497	135.405382469710	315.385136440707	1066.854462967717	151.541051384310	332.972195505758	1151.716264167544	49.629560574002	293.653087931047	1073.967082202370	1074.159083622587	243.210633371760	1210.407246016215	854.198236613381	245.064109088275	1115.820052625892	1097.323274849820	800.854824058660	1305.094338917609	921.617653295891	808.238805622532	
3	26.213142857143	895.749768352976	1008.621867765758	538.484460768960	1052.015869001190	1432.810157674463	339.643804315848	1166.838989596080	1371.052779725632	496.453724605419	1092.889037038543	1445.446408376898	674.550344019415	1041.807585956490	1498.951818429609	494.667137464946	1126.648335553646	951.259592123205	647.356498914476	1104.146146666586	967.011381055614	372.829401650589	1157.063977172298	744.113868814019	619.446059437129	1067.270585432444	636.657271083586	674.523293268545	1143.018263392603	582.113146735363	596.756766784727	1136.826992765259	495.004192291008	600.076006421810	1192.613343237585	790.522740402142	398.721434848058	1151.763161530731	663.595585497783	317.211511576156	1261.140579643202	605.535630727623	371.949668129689	1280.269350708492	519.445939756220	362.278449806877	1223.548968074467	446.801411628743	353.729199200230	1089.866606154154	383.221776741654	308.649899545674	1103.886664347220	251.696420430910	356.410204834804	1108.595001554189	407.305311656237	602.464765343297	1033.324279581456	302.791304573787	656.888675281655	1077.672595691050	209.311651923453	592.487787851846	942.092458707816	46.626489566389	550.367635431868	1113.828459796103	98.320290835649	594.865050688757	1022.933477073048	38.334998922978	627.546870063343	1231.427261366421	40.510840195070	624.792398068712	931.888663044081	154.083984287785	400.206694231364	990.262442162127	123.452381176748	314.012898250197	1093.528628625274	146.437858038569	331.190356665963	1184.576929252504	51.001955989864	290.766897808577	1063.907289465198	1073.040334246927	245.872085962005	1182.140738302025	844.462909629285	246.217071531476	1127.578063779123	1099.493926069938	802.284980487320	1328.318550041746	938.575541612415	806.126280280607	
4	26.224714285714	894.506156798307	1009.125883749073	539.726556719441	1050.344192691408	1432.672024371704	340.404962745035	1166.088942973069	1370.854454212924	496.457402660612	1093.534282285197	1445.598135157442	675.004894102879	1041.424152329613	1499.027154553307	495.294352222360	1125.251548973830	950.855817408559	647.658164897219	1101.012966110596	966.634815020745	373.514594914412	1153.351393705910	743.279032546520	618.985774205939	1062.728474028942	636.534331529894	674.773520277002	1137.282653928583	581.206186220193	596.722125774268	1129.979911283422	494.328435469229	600.036700576476	1191.316528397398	792.798399051682	398.994342772697	1152.307599409412	665.277198001628	317.299397417936	1261.830421056729	608.559389084399	372.106162211360	1282.762008114773	523.972884717664	362.140451016560	1229.943994584235	449.895290346271	353.218580122855	1100.728086195470	378.038278844509	308.081387489259	1123.533803575711	247.351337555603	355.223312907514	1101.264147213531	406.894176889588	602.586203932020	1025.329452549621	302.762045937822	657.183186812458	1068.931468799485	209.070189279953	592.612777038889	932.525568655662	46.622542582070	550.500708544258	1104.337018730253	98.293786931261	594.929295135341	1013.397565215266	38.294156108332	627.648190421422	1221.841864760966	40.438639888802	624.805132720789	958.792358340678	138.320477590287	399.183165010731	1018.564268450871	112.045830404256	312.596767156674	1120.075389940170	141.742591438430	329.481120475721	1217.084676752224	52.822905710364	288.215372130070	1053.739852339599	1072.045349229815	248.272447548795	1154.404561171865	835.666871213376	247.369686997896	1139.085985299355	1101.725977930624	803.565714051438	1350.622035229396	955.679740637401	803.854085136698	
5	26.236285714286	893.330630745298	1009.517466473701	540.830806958724	1048.792585133592	1432.446029432509	341.069547498684	1165.398934137665	1370.537848611403	496.400549022069	1094.176325735271	1445.619182236079	675.374769813707	1041.073011120152	1498.971879244506	495.846264227653	1123.978193464581	950.377477319287	647.880048649912	1098.208219546975	966.198276396368	374.047067461491	1149.634044451077	742.316550025629	618.573820141127	1058.030080878891	636.361338933153	674.981895116140	1131.360223906825	580.218847277120	596.674742467798	1122.947872834775	493.626438070801	599.955129801287	1189.810489879240	794.526444004314	399.221207283343	1152.373532309488	666.535963158277	317.284154656155	1261.931576037965	610.952613713206	372.343314748244	1284.619290558977	528.021282373935	362.067247098735	1235.757422174820	452.751845998112	352.790340296879	1111.544628317447	372.839217076016	307.324309522200	1142.964954038996	243.431248709181	354.050011270042	1093.762410039866	406.437702732616	602.644833388872	1017.256397747012	302.666265944425	657.434336991711	1060.176923248379	208.791263778616	592.684761710444	923.071977628725	46.523134462361	550.628319695350	1094.922783683229	98.255695430675	594.971271999394	1003.955018536086	38.233989878654	627.746019232186	1212.370299320591	40.404241795138	624.813672833638	985.894910112117	123.488480613267	397.926538525589	1047.078509675167	101.448127252887	311.139494814878	1146.529621067078	137.673845684666	327.896292052813	1249.196639787177	55.343059347970	286.204928528563	1043.348876389615	1071.251828860799	250.313220233063	1127.294975953378	828.165636954777	248.534289928629	1150.302911496863	1104.057133426268	804.632113002990	1371.684449677672	973.076357170008	801.336320160697	
